<?xml version="1.0" standalone="no"?>
<!DOCTYPE svg PUBLIC "-//W3C//DTD SVG 20010904//EN"
 "http://www.w3.org/TR/2001/REC-SVG-20010904/DTD/svg10.dtd">
<svg version="1.0" xmlns="http://www.w3.org/2000/svg"
 width="8333.000000pt" height="8333.000000pt" viewBox="0 0 8333.000000 8333.000000"
 preserveAspectRatio="xMidYMid meet">

<g transform="translate(0.000000,8333.000000) scale(0.100000,-0.100000)"
fill="#000000" stroke="none">
<path d="M48105 72450 c-437 -29 -786 -74 -1310 -170 -1056 -193 -1878 -273
-2955 -287 -647 -8 -1107 7 -2265 72 -1191 67 -1568 79 -2210 72 -505 -6 -668
-13 -1080 -47 -828 -69 -1656 -217 -2485 -444 -700 -192 -1174 -368 -1725
-641 -1277 -631 -2355 -1559 -3252 -2800 -503 -696 -976 -1590 -1237 -2334
l-51 -145 -121 -70 c-1358 -792 -2276 -1890 -2719 -3256 -145 -447 -241 -930
-291 -1460 -21 -234 -30 -874 -15 -1136 70 -1217 364 -2485 896 -3874 363
-947 904 -2060 1417 -2911 48 -81 91 -154 94 -163 4 -11 -26 -50 -102 -129
-316 -329 -567 -771 -699 -1231 -47 -165 -89 -383 -105 -545 -15 -154 -12
-495 5 -651 129 -1129 887 -2203 1925 -2730 378 -191 780 -308 1245 -362 145
-17 665 -17 810 0 293 34 578 92 843 173 73 22 139 38 145 36 7 -3 71 -56 142
-118 757 -657 1725 -1273 2749 -1749 132 -61 264 -122 295 -135 31 -13 110
-46 176 -75 541 -234 1266 -485 1930 -668 l140 -39 -180 -42 c-309 -73 -1645
-406 -1965 -490 -2668 -698 -4448 -1303 -5240 -1781 -292 -176 -599 -428 -823
-676 -638 -703 -994 -1612 -1131 -2889 -44 -408 -51 -586 -51 -1350 0 -466 5
-836 13 -1000 26 -533 42 -773 54 -806 27 -82 100 -154 185 -185 29 -10 126
-13 431 -14 l392 0 0 -37 c0 -21 27 -566 60 -1212 l61 -1175 -40 -116 c-200
-572 -364 -1308 -425 -1910 -45 -432 -47 -951 -6 -1294 59 -501 173 -905 361
-1280 223 -444 516 -773 899 -1011 470 -291 1101 -454 1757 -455 114 0 175 -4
205 -14 24 -8 106 -33 183 -55 1016 -291 2280 -394 3745 -306 135 8 264 17
287 20 l42 6 -5 -48 c-3 -26 -45 -538 -94 -1138 -50 -599 -112 -1362 -140
-1695 -173 -2092 -579 -7016 -630 -7640 l-61 -745 -60 -109 c-180 -328 -437
-647 -792 -988 -175 -167 -276 -284 -381 -441 -81 -122 -172 -301 -220 -432
-20 -55 -50 -130 -66 -166 -48 -106 -62 -232 -57 -509 3 -190 8 -255 26 -343
30 -148 72 -272 135 -402 188 -385 535 -663 967 -774 147 -38 214 -47 494 -65
1035 -69 2508 -73 3570 -11 744 44 1325 123 1635 221 498 157 796 570 887
1229 24 179 24 671 0 895 -55 495 -169 1062 -333 1659 l-45 164 160 546 c88
300 209 715 270 921 60 206 184 632 276 945 91 314 204 698 250 855 46 157
293 1003 550 1880 257 877 506 1730 555 1895 48 165 105 361 126 435 22 74 40
123 41 110 2 -14 -59 -1685 -136 -3715 -138 -3682 -138 -3690 -160 -3727 -56
-94 -265 -928 -345 -1379 -83 -466 -101 -658 -101 -1064 1 -352 14 -493 65
-689 126 -479 387 -796 775 -939 352 -131 1178 -225 2335 -267 1045 -38 2924
-11 3525 51 407 42 741 201 1008 478 294 307 446 712 447 1192 0 190 -16 321
-49 399 -15 36 -38 97 -50 135 -33 104 -132 304 -204 414 -142 215 -293 370
-562 575 -554 423 -989 827 -1163 1083 -22 32 -49 67 -61 77 -12 11 -19 26
-16 36 33 103 239 1016 340 1505 662 3199 1116 6823 1320 10515 34 627 52
1037 86 1960 6 157 13 701 16 1210 l6 925 68 44 c231 150 526 441 731 721 577
789 959 1891 1132 3265 66 525 95 959 105 1555 l6 404 100 17 c56 9 118 24
140 35 53 25 112 86 139 143 20 43 21 64 24 366 5 446 -20 833 -83 1275 -275
1930 -1099 3528 -2380 4615 -522 443 -1163 826 -1802 1076 -62 24 -113 46
-113 49 0 3 37 18 83 34 297 105 705 280 1062 456 722 357 1342 767 1935 1278
174 151 615 589 763 760 987 1133 1601 2487 1811 3987 182 1305 145 2595 -119
4185 -225 1348 -453 3208 -624 5085 -61 664 -161 1877 -161 1950 0 22 16 50
62 105 402 490 702 1041 901 1655 131 407 214 821 259 1300 18 188 18 929 0
1125 -34 379 -99 791 -167 1058 -299 1185 -1202 2374 -2405 3167 -987 650
-2078 1020 -3370 1141 -201 19 -1018 28 -1235 14z m880 -560 c1198 -57 2269
-369 3218 -940 170 -102 191 -119 92 -74 -836 374 -1675 572 -2640 624 -649
34 -1398 -20 -2110 -155 -883 -167 -1681 -258 -2579 -296 -364 -15 -1501 -6
-1921 15 -170 9 -548 29 -840 46 -823 46 -1095 59 -1581 71 -980 25 -1878 -31
-2729 -172 -710 -118 -1463 -303 -2069 -509 -1506 -513 -2818 -1448 -3850
-2743 -398 -500 -840 -1185 -1053 -1634 -123 -258 -137 -485 -42 -664 90 -168
259 -281 554 -369 177 -53 256 -90 316 -150 120 -120 85 -256 -116 -455 -166
-165 -340 -283 -660 -446 -356 -183 -662 -295 -1003 -368 -640 -138 -1154
-416 -1579 -854 -382 -395 -628 -843 -757 -1387 -341 -1424 -228 -3210 323
-5145 163 -574 407 -1277 635 -1835 30 -74 54 -135 52 -137 -1 -2 -79 153
-173 345 -798 1621 -1321 3283 -1472 4682 -43 393 -46 459 -46 940 0 498 7
617 56 970 163 1175 656 2182 1464 2985 376 374 811 697 1338 995 182 103 195
118 261 315 244 721 723 1631 1226 2325 559 774 1215 1438 1936 1961 761 553
1558 936 2524 1214 1065 306 2033 465 3140 516 294 13 1384 7 1710 -11 113 -5
486 -26 830 -45 344 -19 767 -41 940 -50 1750 -82 3009 -8 4527 269 801 146
1427 196 2078 166z m3054 -7671 c58 -723 -30 -1579 -240 -2319 -47 -165 -48
-213 -5 -298 52 -102 155 -159 272 -149 54 4 85 16 236 94 385 199 797 471
1109 732 l94 78 7 -111 c58 -873 196 -2460 294 -3371 101 -949 249 -2099 319
-2485 427 -2351 418 -4195 -29 -5730 -252 -867 -664 -1682 -1184 -2340 -297
-375 -726 -808 -1108 -1117 -864 -699 -1955 -1272 -3224 -1694 -313 -103 -607
-190 -1005 -294 -858 -225 -1533 -418 -1618 -461 -93 -49 -89 -212 7 -258 40
-19 127 -20 366 -6 184 11 487 38 539 47 l34 6 -44 -64 c-66 -96 -298 -323
-434 -424 -474 -355 -1117 -600 -1830 -699 -262 -37 -335 -41 -700 -41 -397 0
-513 9 -807 61 -535 93 -1019 286 -1366 543 -81 60 -222 183 -233 204 -6 9 27
11 139 6 238 -11 890 -10 1122 1 401 19 740 49 1090 96 394 52 407 56 442 125
24 46 23 93 -4 140 -41 73 32 65 -1108 119 -1366 65 -1993 115 -2700 215
-2039 291 -3975 945 -5615 1898 -642 373 -1275 817 -1655 1164 -116 105 -188
143 -274 143 -46 0 -99 -14 -245 -64 -454 -155 -829 -214 -1308 -203 -264 6
-402 21 -628 72 -819 184 -1493 694 -1925 1458 -365 647 -471 1409 -285 2057
122 425 376 834 692 1116 314 279 890 533 1409 621 100 17 108 17 171 0 446
-117 959 -580 1455 -1312 315 -465 560 -949 578 -1141 9 -90 39 -161 87 -205
78 -73 196 -97 294 -60 87 33 133 90 228 280 508 1013 777 2352 842 4181 13
362 7 1357 -11 1710 -43 888 -110 1655 -210 2429 -16 124 -28 226 -26 228 2 2
70 21 152 43 1211 316 2426 1014 3467 1992 70 66 127 118 127 116 0 -3 -25
-81 -56 -173 -208 -629 -523 -1278 -910 -1873 -106 -164 -123 -214 -104 -306
28 -134 138 -226 272 -226 76 0 582 95 1093 205 2650 571 4852 1485 6434 2670
376 282 599 473 919 789 172 171 212 205 206 181 -4 -16 -43 -140 -86 -275
-209 -640 -513 -1277 -895 -1878 -158 -248 -336 -498 -468 -657 -86 -103 -109
-159 -103 -250 6 -83 33 -141 93 -193 92 -82 147 -86 435 -37 2316 391 4227
1341 5680 2821 644 656 1159 1376 1568 2192 l127 252 16 -118 c9 -65 22 -179
28 -253z m-3384 -19459 c329 -100 699 -246 1002 -396 1027 -509 1826 -1245
2408 -2219 560 -938 911 -2081 1020 -3325 14 -160 35 -548 35 -646 l0 -41 -69
-12 c-50 -8 -405 -11 -1229 -11 l-1160 0 -7 68 c-19 174 -73 300 -174 406
-101 105 -232 186 -416 256 -25 9 -26 13 -20 52 4 23 7 90 7 148 -2 252 -106
448 -310 586 -102 68 -198 95 -364 101 -76 3 -138 9 -138 14 0 33 -103 748
-115 799 -77 322 -316 619 -616 768 -178 88 -325 122 -529 122 -127 0 -160 -4
-1115 -135 -300 -41 -907 -124 -1135 -155 -118 -16 -530 -72 -915 -125 -385
-52 -734 -100 -775 -105 -41 -6 -386 -53 -766 -105 -381 -52 -700 -95 -710
-95 -14 0 -39 39 -96 153 -319 628 -790 1333 -1262 1887 -394 462 -894 950
-1294 1261 l-33 26 108 41 c59 23 177 66 261 96 l153 54 166 -19 c92 -11 170
-24 173 -29 190 -341 411 -577 764 -811 158 -106 430 -247 611 -318 578 -227
1240 -336 1920 -317 258 8 268 9 480 32 1278 139 2368 697 2880 1474 69 105
150 262 185 357 l22 61 77 17 c88 19 564 139 631 159 49 15 65 11 345 -74z
m-11035 -904 c0 -7 -135 -89 -147 -89 -7 0 -14 -6 -17 -14 -3 -7 -12 -13 -20
-13 -8 0 -16 -3 -18 -7 -5 -14 -161 -116 -175 -116 -7 0 -11 -2 -8 -5 2 -3
-44 -41 -104 -86 -111 -83 -270 -212 -344 -278 -36 -33 -71 -47 -247 -104
-113 -36 -243 -78 -290 -94 -47 -16 -213 -70 -370 -120 -157 -50 -377 -122
-490 -160 -113 -37 -322 -106 -465 -153 -143 -47 -611 -201 -1040 -342 -429
-141 -870 -286 -980 -322 -110 -35 -225 -73 -255 -83 -87 -29 -368 -118 -495
-155 -533 -157 -912 -434 -1223 -895 -160 -235 -253 -424 -362 -730 -28 -76
-42 -105 -54 -104 -9 1 -14 -2 -11 -6 5 -8 -72 -75 -86 -75 -4 0 -11 -4 -16
-9 -5 -5 -2 -6 7 -2 8 4 4 -3 -10 -16 -28 -26 -100 -121 -119 -156 -7 -12 -17
-20 -23 -16 -7 4 -8 3 -4 -4 8 -13 -43 -112 -57 -112 -5 0 -6 -4 -2 -10 3 -5
1 -17 -5 -27 -23 -41 -60 -138 -93 -244 -99 -317 -154 -643 -198 -1169 -6 -74
-13 -369 -16 -655 -5 -524 3 -844 32 -1270 8 -115 15 -213 15 -217 0 -5 -90
-8 -199 -8 l-199 0 -6 73 c-10 125 -26 517 -37 932 -14 531 -1 1053 37 1500
16 194 57 529 74 610 6 28 11 57 12 65 1 27 67 353 83 410 9 30 18 66 21 80 8
41 46 173 57 200 5 14 12 33 14 44 4 22 47 150 64 191 7 17 13 32 14 35 14 55
87 223 99 232 6 4 7 8 3 8 -4 0 31 76 79 170 51 101 90 167 97 163 6 -4 7 -1
2 6 -4 7 1 22 13 34 12 12 20 25 19 28 -4 14 126 198 136 192 5 -3 7 -1 3 5
-3 6 -1 14 4 17 6 4 15 18 21 32 5 14 14 21 21 17 6 -4 8 -3 5 3 -12 19 168
227 186 216 6 -4 7 -1 2 7 -5 8 29 49 106 124 130 126 193 179 203 168 4 -4 6
-2 4 5 -4 15 111 105 126 96 6 -3 8 -2 4 2 -11 11 121 106 136 98 6 -3 8 -2 3
2 -4 5 32 33 80 62 122 75 484 255 501 248 7 -2 11 -1 8 4 -8 12 72 43 86 35
6 -4 8 -3 5 3 -4 6 32 26 86 48 50 21 110 46 132 56 22 10 69 29 105 43 36 13
144 54 240 91 590 227 1596 548 2615 833 367 103 485 133 497 126 6 -4 8 -3 5
2 -5 8 437 133 491 139 9 1 28 7 42 12 37 15 1547 400 1578 402 6 1 12 -1 12
-3z m1684 -124 c762 -542 1562 -1394 2149 -2294 172 -262 486 -803 474 -815
-2 -2 -73 -12 -158 -23 -466 -61 -551 -73 -627 -91 -46 -10 -89 -16 -94 -12
-7 3 -8 1 -4 -5 4 -7 1 -12 -6 -12 -7 0 -49 -16 -93 -36 -44 -20 -86 -36 -92
-37 -7 0 -13 -3 -13 -7 0 -14 -120 -81 -132 -74 -6 4 -8 3 -5 -3 7 -11 -33
-53 -54 -56 -8 -2 -15 -7 -17 -12 -6 -20 -106 -114 -115 -108 -6 3 -7 1 -3 -5
3 -6 -6 -26 -22 -44 -43 -51 -107 -155 -148 -241 l-37 -78 -74 138 c-192 356
-410 694 -650 1008 -26 34 -129 161 -134 165 -3 3 -10 12 -15 21 -49 87 -535
595 -759 795 -380 337 -747 607 -1175 862 -148 88 -163 99 -153 116 3 5 1 6
-6 2 -6 -4 -8 -12 -5 -18 4 -5 -6 -2 -20 7 -15 10 -23 21 -19 25 101 85 437
330 455 330 5 0 26 13 46 29 111 87 510 291 750 382 239 92 600 196 627 181 6
-3 63 -44 129 -90z m-2025 -2115 c1446 -1085 2406 -2679 2797 -4646 25 -123
41 -228 37 -232 -4 -4 -242 -100 -528 -212 -286 -113 -605 -239 -710 -280
-512 -202 -1938 -764 -2230 -879 -181 -71 -462 -181 -623 -245 -161 -63 -294
-114 -296 -112 -2 2 -26 78 -54 169 -233 755 -365 1452 -423 2235 -15 201 -15
742 0 935 40 507 133 962 306 1485 176 534 430 1060 726 1501 99 149 293 405
398 527 l92 107 182 -122 c100 -68 247 -172 326 -231z m10851 -813 c175 -48
338 -204 390 -371 19 -61 135 -871 127 -880 -3 -2 -72 -37 -153 -77 -82 -40
-173 -87 -203 -105 -29 -18 -54 -31 -56 -29 -1 2 -16 28 -33 59 -64 113 -191
217 -317 259 -208 69 -501 27 -780 -112 -196 -98 -407 -285 -627 -553 -338
-415 -715 -1081 -1043 -1845 -77 -179 -96 -215 -116 -221 -13 -4 -319 -97
-679 -207 -914 -279 -1683 -508 -2340 -695 -353 -101 -963 -267 -966 -264 -1
1 -30 202 -63 447 -81 597 -155 1139 -191 1400 -259 1881 -251 1800 -196 1944
63 165 217 309 381 355 33 9 1378 195 3625 501 239 33 550 75 690 94 140 19
341 47 445 61 105 14 386 52 625 85 239 33 617 84 840 114 223 30 419 57 435
59 46 7 143 -3 205 -19z m-15340 -969 c224 -213 443 -614 598 -1095 90 -279
188 -704 242 -1050 77 -489 115 -834 154 -1375 44 -609 74 -1550 83 -2646 l6
-715 -179 -32 c-347 -61 -730 -112 -1094 -144 -197 -17 -869 -17 -1015 0 -264
32 -517 90 -643 147 -29 13 -53 23 -55 22 -3 -2 -86 45 -150 86 -26 17 -49 40
-52 51 -2 12 -22 395 -45 851 -84 1686 -82 1655 -119 2130 -73 916 -66 1856
19 2510 20 154 66 400 78 420 3 5 7 21 9 36 5 49 65 213 106 293 22 43 64 102
91 131 64 65 160 130 178 119 7 -4 10 -3 5 1 -4 5 18 22 50 37 195 100 513
185 853 227 231 29 223 28 552 27 l297 -1 31 -30z m16639 -701 c66 -55 63
-162 -11 -334 -49 -114 -55 -195 -21 -270 47 -106 112 -150 264 -181 144 -28
280 -75 349 -120 50 -32 60 -44 66 -75 18 -95 -16 -330 -77 -533 -25 -81 -30
-115 -26 -156 12 -114 69 -191 189 -251 90 -46 160 -110 189 -177 18 -41 23
-70 22 -137 0 -108 -21 -195 -81 -334 -42 -99 -47 -119 -47 -186 0 -64 4 -82
27 -120 126 -208 138 -352 44 -540 -94 -187 -255 -343 -572 -557 -567 -381
-1318 -783 -2079 -1114 l-100 -43 -285 -289 c-1402 -1423 -3107 -2546 -4770
-3142 -1376 -494 -2613 -606 -3575 -325 -332 98 -677 267 -895 441 -126 100
-396 376 -485 494 -417 554 -991 1695 -1527 3028 -55 137 -98 250 -96 252 3 3
145 59 2328 920 883 348 1714 676 1848 729 134 53 245 96 247 96 5 0 238 -701
234 -703 -2 -1 -116 -58 -253 -127 -756 -379 -1902 -1000 -1963 -1065 -43 -45
-50 -90 -25 -148 23 -52 55 -77 109 -84 33 -4 86 15 368 135 682 289 1269 524
1929 769 172 63 311 106 550 168 715 186 2230 623 3291 950 77 24 349 107 605
185 256 78 484 153 507 166 58 33 104 91 132 166 103 271 325 755 485 1058
423 798 792 1260 1106 1383 94 37 186 58 233 55 60 -4 71 -31 74 -192 3 -112
6 -136 27 -180 50 -105 142 -166 252 -166 83 0 119 15 254 102 410 265 884
476 1077 478 41 0 58 -5 82 -26z m3267 -1916 c-8 -359 -20 -628 -42 -913 -123
-1622 -528 -2906 -1170 -3710 -113 -141 -303 -330 -424 -422 -252 -191 -702
-380 -1230 -517 -955 -248 -2510 -387 -4199 -374 l-414 3 189 127 c809 541
1553 1155 2228 1838 l270 273 205 92 c220 98 707 332 781 376 25 14 135 75
245 134 419 227 933 547 1163 724 237 184 426 400 529 606 89 176 123 318 123
507 0 138 -17 235 -65 361 l-32 87 28 84 c51 152 64 237 64 411 0 137 -3 172
-23 240 -31 109 -90 225 -157 313 l-55 72 996 0 997 0 -7 -312z m-18183 -4760
c4 -13 17 -106 31 -208 86 -631 95 -1179 30 -1691 -29 -232 -64 -368 -133
-514 -134 -284 -375 -552 -686 -762 -57 -38 -321 -193 -329 -193 -3 0 -53 -23
-113 -51 -103 -49 -358 -147 -453 -174 -25 -8 -76 -22 -115 -33 -168 -48 -411
-95 -665 -129 -192 -25 -706 -25 -905 0 -243 30 -452 75 -655 140 l-105 34
-22 54 c-12 30 -20 60 -18 67 2 6 1 12 -4 12 -16 0 -126 435 -120 474 1 6 -1
18 -4 26 -11 27 -35 230 -48 400 -15 202 -6 670 16 890 39 392 112 807 211
1205 58 231 120 445 130 445 2 0 44 -18 93 -40 228 -103 526 -176 883 -216
197 -22 711 -30 968 -15 365 21 742 65 1145 131 226 38 663 123 785 154 76 19
77 19 83 -6z m16147 -1622 l0 -464 -272 -91 c-253 -83 -631 -201 -646 -201 -4
0 17 13 46 29 206 114 385 304 493 521 74 151 107 281 117 463 l7 119 115 43
c63 23 121 43 128 44 9 1 12 -98 12 -463z m-886 177 c-24 -102 -91 -212 -175
-287 -100 -90 -189 -128 -352 -151 -97 -14 -5137 -701 -5757 -786 -162 -22
-358 -49 -435 -59 -379 -53 -405 -55 -494 -38 -98 20 -209 73 -277 132 -27 24
-47 46 -44 48 3 2 73 26 155 52 353 113 771 275 1120 433 221 101 698 335 722
355 6 5 63 7 135 4 762 -34 2086 -30 2828 9 778 41 1409 105 1984 201 218 36
557 102 565 110 2 2 10 4 18 4 10 0 12 -8 7 -27z m-11754 -997 c606 -352 1432
-528 2299 -487 391 18 690 55 1082 135 l209 42 27 -45 c84 -148 250 -318 398
-410 139 -87 317 -152 468 -170 207 -25 -1664 -35 -2368 -12 -398 12 -1019 38
-1125 46 -36 2 -110 7 -165 10 -180 9 -567 36 -745 50 -96 8 -185 15 -197 15
l-23 0 0 456 0 456 28 -18 c15 -10 65 -40 112 -68z m11317 -52 c-3 -3 -12 -4
-19 -1 -8 3 -5 6 6 6 11 1 17 -2 13 -5z m-38 -8 c-8 -7 -442 -115 -704 -175
-1423 -326 -3013 -545 -4735 -650 -458 -29 -1020 -54 -990 -45 8 2 924 128
2035 279 2006 273 2257 308 2535 346 1567 217 1872 257 1859 245z m-10839
-14881 c343 -42 907 -178 1032 -248 59 -32 91 -88 96 -161 7 -109 -52 -186
-159 -207 -51 -11 -61 -9 -194 34 -258 83 -462 132 -702 166 -583 85 -1156 26
-1561 -160 -100 -46 -137 -54 -187 -40 -91 25 -145 90 -153 187 -8 96 43 160
178 223 200 93 540 182 810 210 58 6 119 13 135 15 77 10 579 -3 705 -19z
m10005 1 c287 -40 567 -115 755 -204 149 -70 190 -119 190 -223 0 -87 -51
-158 -133 -185 -63 -21 -94 -15 -209 36 -410 185 -985 244 -1553 160 -237 -35
-466 -89 -720 -170 -101 -32 -139 -40 -170 -35 -129 20 -208 156 -159 273 30
73 66 98 213 146 325 108 749 193 1086 220 124 9 585 -3 700 -18z m-10154
-705 c289 -38 560 -104 849 -208 109 -39 143 -56 176 -88 67 -64 81 -147 39
-231 -29 -58 -87 -100 -152 -110 -38 -6 -66 1 -201 50 -407 145 -744 206
-1147 206 -400 0 -809 -80 -1104 -216 -41 -19 -91 -37 -111 -40 -130 -21 -255
116 -221 243 21 77 48 104 161 160 241 121 639 220 1010 253 163 14 521 4 701
-19z m10629 4 c311 -39 595 -112 832 -215 122 -52 162 -80 187 -132 56 -117 0
-249 -123 -288 -50 -16 -97 -8 -190 35 -173 79 -419 147 -676 186 -193 30
-645 33 -837 6 -264 -37 -529 -103 -752 -188 -144 -54 -175 -58 -244 -26 -98
45 -141 150 -103 250 26 69 69 102 191 148 326 124 709 211 1050 239 152 12
515 4 665 -15z m-7210 -1661 c0 -48 -51 -254 -92 -372 -75 -220 -182 -391
-291 -466 -66 -46 -131 -66 -329 -105 -410 -80 -892 -126 -1708 -163 -367 -17
-1973 -17 -2370 0 -857 36 -1000 51 -1153 121 -291 131 -520 445 -591 808 -17
89 -26 189 -18 197 3 3 1478 6 3279 6 l3273 0 0 -26z m9270 10 c0 -9 -9 -60
-20 -114 -94 -463 -406 -836 -778 -931 -192 -49 -1236 -89 -2337 -89 -1205 0
-2067 39 -2765 126 -232 28 -520 83 -604 114 -202 76 -368 365 -455 794 -11
55 -18 103 -15 108 3 4 1573 8 3490 8 3183 0 3484 -1 3484 -16z"/>
<path d="M49610 59705 c-526 -66 -1022 -269 -1365 -557 -253 -213 -435 -463
-529 -726 -33 -93 -33 -107 4 -144 45 -44 80 -35 150 41 354 382 977 687 1635
801 299 51 699 66 974 35 359 -40 692 -142 948 -290 62 -36 125 -65 139 -65
37 0 74 42 74 84 0 26 -14 53 -62 118 -271 367 -697 606 -1239 693 -145 24
-571 29 -729 10z"/>
<path d="M40053 58365 c-436 -55 -847 -200 -1173 -413 -147 -96 -239 -173
-368 -307 -164 -170 -284 -360 -356 -561 -37 -103 -34 -134 15 -159 15 -8 37
-15 48 -15 12 0 63 42 126 105 449 444 1158 741 1922 806 205 17 588 7 767
-21 325 -50 639 -157 878 -302 57 -34 73 -39 103 -34 39 8 65 38 65 77 0 56
-157 253 -301 377 -254 219 -568 359 -959 429 -125 22 -180 26 -400 29 -178 2
-289 -1 -367 -11z"/>
<path d="M50265 57034 c-16 -2 -66 -9 -110 -15 -315 -42 -650 -195 -920 -421
-470 -393 -772 -985 -851 -1668 -20 -179 -15 -556 11 -720 99 -640 384 -1184
813 -1552 857 -736 2033 -578 2732 367 270 364 440 822 491 1319 17 171 7 544
-20 709 -167 1036 -855 1816 -1730 1963 -85 15 -358 26 -416 18z m-415 -1054
c239 -80 440 -327 519 -635 69 -272 42 -568 -74 -813 -229 -484 -719 -609
-1064 -272 -181 176 -283 424 -298 722 -21 425 170 812 475 967 125 64 307 76
442 31z"/>
<path d="M40165 55803 c-102 -9 -276 -47 -387 -83 -654 -215 -1182 -816 -1393
-1586 -64 -234 -87 -399 -92 -679 -6 -275 7 -431 51 -646 176 -844 726 -1520
1427 -1753 206 -68 286 -80 544 -81 200 0 244 3 341 22 361 74 693 254 967
526 391 388 632 894 719 1507 20 146 17 604 -5 750 -141 916 -654 1622 -1390
1914 -218 87 -539 131 -782 109z m1087 -1056 c218 -80 394 -277 483 -541 117
-348 71 -749 -120 -1036 -66 -99 -196 -218 -288 -263 -443 -220 -921 144 -996
758 -22 181 -4 357 55 535 55 164 112 258 229 375 108 109 190 159 310 190 89
22 241 14 327 -18z"/>
<path d="M47725 51838 c-10 -6 -30 -25 -45 -42 -199 -242 -582 -501 -960 -649
-835 -327 -1816 -327 -2519 -1 -51 24 -115 57 -142 74 -62 38 -92 38 -130 1
-40 -40 -37 -68 17 -141 194 -264 494 -473 858 -597 807 -275 1855 -91 2491
439 246 205 435 472 525 745 34 102 32 132 -7 163 -29 22 -58 25 -88 8z"/>
<path d="M30555 51554 c-222 -34 -410 -103 -585 -215 -95 -61 -123 -90 -123
-129 0 -38 38 -80 71 -80 14 0 73 15 131 34 186 60 256 71 456 70 162 0 190
-3 278 -27 389 -105 714 -415 969 -927 l77 -155 -91 -17 c-243 -46 -433 -142
-590 -299 -258 -257 -333 -615 -209 -999 34 -107 43 -103 -121 -61 -218 57
-414 156 -620 313 -116 88 -306 274 -400 393 -44 55 -89 108 -100 118 -29 24
-61 21 -98 -10 -28 -23 -32 -31 -27 -65 7 -51 112 -264 189 -380 91 -138 141
-201 258 -322 318 -329 644 -494 1105 -562 126 -19 258 -14 345 12 66 19 133
83 149 141 25 89 16 129 -63 284 -91 177 -126 283 -133 404 -14 235 105 390
359 466 65 20 97 23 298 24 248 1 264 4 334 65 60 53 90 122 91 205 0 61 -6
85 -49 190 -58 144 -189 419 -253 530 -122 212 -257 388 -424 550 -249 241
-464 363 -759 431 -64 15 -400 28 -465 18z"/>
</g>
</svg>
