<?xml version="1.0" standalone="no"?>
<!DOCTYPE svg PUBLIC "-//W3C//DTD SVG 20010904//EN"
 "http://www.w3.org/TR/2001/REC-SVG-20010904/DTD/svg10.dtd">
<svg version="1.0" xmlns="http://www.w3.org/2000/svg"
 width="1034.000000pt" height="1154.000000pt" viewBox="0 0 1034.000000 1154.000000"
 preserveAspectRatio="xMidYMid meet">

<g transform="translate(0.000000,1154.000000) scale(0.100000,-0.100000)"
fill="#000000" stroke="none">
<path d="M3375 10716 c-231 -54 -408 -200 -494 -408 -19 -44 -32 -59 -81 -89
-141 -89 -215 -278 -181 -464 15 -85 82 -214 145 -282 l53 -57 -50 -79 c-185
-291 -242 -667 -150 -989 21 -75 27 -115 27 -207 l1 -114 -60 -16 c-136 -38
-271 -144 -330 -261 -75 -147 -73 -343 3 -484 87 -161 249 -262 440 -273 l92
-6 0 -36 c0 -53 32 -161 65 -217 115 -196 522 -442 956 -577 128 -41 318 -88
426 -107 82 -15 82 -13 15 -102 -32 -42 -43 -49 -121 -73 -225 -70 -446 -233
-573 -421 -24 -35 -45 -63 -48 -63 -3 0 -21 27 -40 61 -43 75 -99 140 -154
177 -46 31 -126 61 -165 61 -15 0 -37 11 -50 25 -17 18 -34 25 -61 25 l-37 0
-7 63 c-10 90 -26 168 -43 202 -26 52 -85 104 -139 125 -62 23 -456 120 -488
120 -30 0 -83 -35 -91 -60 -4 -12 -12 -19 -18 -17 -7 2 -82 55 -167 116 -123
88 -161 111 -188 111 -70 0 -132 -54 -139 -124 -10 -82 -8 -84 209 -240 l203
-146 0 -98 c0 -80 4 -104 22 -137 43 -80 113 -128 210 -146 31 -6 70 -21 87
-34 26 -19 68 -37 124 -51 6 -2 12 -19 12 -37 0 -19 9 -46 20 -60 16 -20 20
-40 20 -105 0 -121 28 -202 93 -266 33 -33 75 -62 117 -80 54 -24 73 -38 105
-83 22 -31 81 -95 132 -143 145 -139 279 -194 415 -170 65 11 167 54 218 90
38 27 44 25 36 -12 -15 -73 -36 -306 -47 -508 -23 -452 13 -977 112 -1590 32
-200 140 -746 188 -955 17 -71 29 -130 28 -130 -1 -1 -26 -11 -55 -23 -73 -29
-181 -103 -242 -164 -91 -92 -170 -250 -170 -341 0 -90 66 -170 173 -207 317
-112 980 37 1135 255 19 27 26 48 25 83 -1 56 -37 230 -62 306 -11 29 -16 58
-12 65 4 6 -3 64 -15 129 -62 313 -101 659 -113 1002 -7 225 -2 613 9 624 3 3
42 -1 85 -9 44 -8 98 -15 120 -15 78 -1 83 -5 89 -73 52 -614 123 -1007 271
-1504 30 -100 55 -186 55 -190 0 -4 -30 -24 -66 -43 -125 -66 -268 -222 -320
-348 -27 -67 -32 -167 -10 -211 39 -74 144 -132 274 -151 308 -44 782 69 967
232 55 49 75 84 75 136 0 66 -38 235 -76 339 -61 165 -119 411 -178 753 -81
464 -124 1070 -110 1528 7 218 7 222 28 222 39 0 140 30 201 60 63 30 137 96
161 142 25 49 65 182 81 273 21 121 13 383 -17 550 -32 178 -87 427 -116 524
-15 47 -37 153 -49 234 -13 82 -26 154 -28 161 -3 7 -26 30 -50 50 -45 37 -46
37 -77 21 l-32 -16 -46 43 c-88 82 -225 161 -335 193 -66 19 -71 25 -56 58 9
19 26 29 73 42 78 21 270 97 361 142 252 126 509 328 691 543 l65 77 92 -5
c167 -8 287 36 400 149 206 206 204 536 -5 735 -35 32 -73 66 -86 74 l-23 15
15 110 c42 305 51 662 21 900 -47 384 -195 751 -424 1050 -61 81 -222 246
-296 305 -269 214 -654 374 -1095 454 -272 50 -403 60 -740 60 -354 1 -456
-10 -631 -68 l-97 -31 -43 27 c-110 70 -315 104 -444 74z m245 -66 c56 -13
170 -59 170 -70 0 -4 -15 -17 -33 -27 -24 -15 -39 -17 -62 -11 -64 18 -181 29
-235 23 -53 -6 -59 -10 -96 -56 -84 -107 -240 -213 -303 -207 -32 3 -37 -1
-63 -46 -16 -27 -40 -83 -54 -124 -26 -81 -49 -240 -39 -272 3 -11 2 -20 -4
-20 -30 0 -31 199 -2 315 12 44 40 118 62 165 77 157 234 283 404 324 70 17
191 20 255 6z m1159 0 c553 -29 1015 -146 1373 -346 98 -55 347 -232 278 -198
-8 4 -34 20 -58 36 -68 46 -247 132 -369 177 -569 208 -1476 314 -1934 226
-204 -39 -317 -81 -487 -181 -19 -11 -16 -5 13 21 172 159 420 244 773 264
201 12 200 12 411 1z m-1977 -593 c-64 -103 -77 -147 -76 -267 1 -71 6 -119
18 -149 26 -69 9 -61 -24 11 -78 173 -52 359 67 474 l48 47 3 -27 c2 -18 -10
-47 -36 -89z m2871 -692 c38 -8 92 -25 121 -38 62 -29 187 -142 222 -203 39
-67 51 -177 35 -341 -23 -248 -24 -303 -8 -389 20 -106 62 -205 149 -351 38
-65 74 -126 79 -135 9 -17 -11 -18 -356 -18 l-365 0 0 29 c0 44 -45 178 -80
238 -63 110 -195 225 -315 276 -72 31 -158 47 -246 47 -252 0 -472 -136 -584
-363 -43 -85 -51 -96 -69 -91 -12 4 -60 6 -107 6 l-85 -1 -13 37 c-24 69 -102
181 -167 240 -67 62 -160 116 -254 148 -68 23 -291 27 -355 6 -240 -79 -407
-251 -462 -475 l-16 -68 -36 3 -36 3 -6 60 c-32 293 28 628 165 919 46 99 138
251 183 305 l29 33 71 -25 c183 -66 479 -102 848 -101 441 0 716 44 1174 189
231 73 351 88 484 60z m-2101 -940 c80 -17 121 -34 208 -91 126 -81 194 -174
255 -351 3 -9 11 -10 30 -3 40 15 168 12 209 -5 29 -12 37 -13 40 -3 3 7 10
31 16 53 38 128 170 283 292 343 93 46 150 61 248 68 176 12 330 -46 461 -175
107 -106 179 -256 179 -373 l0 -37 101 -3 c84 -3 104 -6 113 -20 8 -13 8 -23
0 -35 -10 -15 -30 -18 -139 -21 -85 -2 -132 1 -141 9 -9 7 -14 32 -14 68 0
272 -247 512 -524 511 -234 -1 -452 -174 -511 -405 -8 -32 -15 -74 -15 -92 0
-32 -2 -33 -39 -33 -33 0 -40 4 -45 26 -9 34 -59 54 -133 54 -73 0 -107 -17
-111 -53 -3 -24 -7 -27 -43 -27 -37 0 -39 2 -39 30 0 49 -21 132 -50 195 -102
224 -369 351 -603 286 -97 -26 -138 -47 -209 -105 -106 -86 -174 -219 -186
-361 l-7 -80 -102 1 c-105 0 -133 9 -133 44 0 33 24 41 94 34 l66 -7 0 28 c0
48 31 148 68 220 50 98 164 210 263 259 127 62 265 80 401 51z m-54 -115 c35
-6 81 -18 103 -27 35 -14 38 -17 26 -32 -28 -33 -27 -39 16 -64 82 -48 154
-142 182 -237 7 -22 1 -19 -42 21 -53 50 -141 89 -199 89 -73 0 -123 -20 -164
-68 -22 -24 -40 -49 -40 -53 0 -5 23 -25 50 -45 28 -20 47 -40 44 -45 -3 -5
-43 -9 -89 -9 -47 0 -87 -5 -90 -10 -4 -6 -6 -37 -6 -70 0 -64 24 -130 65
-185 25 -32 130 -94 162 -96 12 0 7 -4 -11 -10 -83 -26 -234 23 -321 103 l-46
43 -20 -24 -19 -24 42 -43 c134 -136 368 -163 541 -61 54 31 139 120 166 173
27 54 52 139 53 188 2 31 3 34 6 13 3 -18 14 -32 30 -40 24 -10 25 -15 19 -62
-3 -28 -23 -85 -45 -130 -157 -317 -560 -404 -835 -179 -68 55 -146 169 -170
250 l-18 61 26 26 c20 20 26 36 26 71 0 222 164 423 384 471 77 17 96 17 174
5z m1462 0 c148 -23 297 -132 359 -263 17 -36 31 -71 31 -78 0 -7 -12 12 -27
42 -44 89 -180 209 -236 209 -8 0 -22 -10 -30 -23 -15 -23 -14 -24 35 -47 71
-34 143 -107 178 -182 41 -86 38 -100 -11 -50 -64 64 -119 87 -209 87 -55 0
-87 -6 -120 -21 -43 -20 -100 -68 -100 -84 0 -4 34 -34 76 -66 l77 -59 -113
-3 -113 -3 5 -68 c9 -122 81 -220 191 -258 l52 -18 -65 -3 c-36 -2 -88 2 -117
8 -63 14 -160 75 -198 125 l-29 37 -18 -24 c-9 -12 -18 -28 -18 -34 0 -18 102
-107 151 -131 57 -28 152 -53 205 -53 212 0 406 156 448 360 l12 61 22 -24 22
-23 -19 -57 c-76 -219 -284 -367 -516 -367 -204 0 -394 120 -486 304 -22 46
-42 103 -45 131 -6 48 -5 52 20 63 20 9 26 19 26 44 0 56 29 158 61 219 64
120 210 226 339 248 76 12 86 12 160 1z m-2320 -378 c0 -52 -25 -86 -78 -104
-151 -54 -245 -249 -199 -409 18 -61 69 -147 93 -156 8 -3 23 2 32 11 16 15
16 18 0 44 -75 117 -88 213 -44 307 41 89 156 172 203 147 11 -6 23 -32 31
-65 21 -90 71 -236 112 -323 l38 -82 -19 -53 c-10 -30 -23 -84 -30 -121 l-12
-68 -73 0 c-224 0 -409 159 -446 384 -35 212 101 430 310 497 77 24 82 24 82
-9z m1558 -68 c22 -5 34 -14 41 -35 6 -17 19 -31 34 -34 20 -5 25 -16 35 -68
15 -81 79 -208 138 -275 222 -252 613 -265 850 -28 80 81 116 137 149 234 l23
67 435 3 436 2 17 -57 c9 -32 20 -68 25 -80 14 -37 44 -28 72 20 14 23 49 65
79 93 171 161 433 165 607 8 201 -180 202 -500 2 -675 -174 -154 -427 -154
-606 1 -38 33 -50 38 -66 30 -10 -6 -19 -18 -19 -27 0 -22 75 -88 137 -121 29
-15 53 -29 53 -32 0 -3 -37 -48 -82 -99 -264 -300 -649 -534 -1053 -641 -540
-143 -1160 -111 -1760 91 -352 119 -590 253 -783 442 -133 130 -164 325 -88
551 l25 75 -43 93 c-45 96 -100 249 -112 312 l-6 36 45 0 c24 0 49 -6 54 -12
5 -7 19 -45 31 -85 55 -177 217 -329 402 -379 78 -21 215 -23 290 -5 216 52
403 245 442 457 10 53 15 62 39 71 21 8 29 18 29 36 0 16 7 27 18 30 27 7 77
8 110 1z m-2172 -1645 c93 -66 185 -138 206 -159 35 -38 36 -39 17 -56 -11
-10 -25 -37 -32 -61 l-13 -44 -221 158 c-222 158 -222 158 -222 196 -1 45 34
87 72 87 15 0 89 -46 193 -121z m503 -79 c286 -70 326 -92 360 -190 11 -33 44
-241 38 -246 -1 -1 -69 -52 -152 -114 -149 -111 -150 -111 -197 -106 -121 13
-190 88 -207 227 -5 38 -15 78 -23 88 -7 10 -28 38 -46 62 -25 33 -32 50 -27
69 14 54 45 53 119 -4 31 -25 81 -54 109 -64 103 -39 218 -37 225 3 5 24 -17
36 -55 30 -29 -5 -37 0 -85 49 -44 45 -64 57 -113 71 -124 34 -161 47 -182 68
-37 34 -27 107 15 107 8 0 107 -23 221 -50z m2921 -92 c0 -28 -150 -318 -170
-328 -26 -14 -37 -7 -134 79 -69 61 -102 78 -131 67 -23 -8 -19 -35 4 -29 13
3 34 -9 65 -37 l45 -42 -26 -41 c-61 -96 -139 -147 -224 -147 -44 0 -48 2 -54
28 -7 36 9 111 37 165 11 23 50 72 85 108 56 59 69 67 111 73 66 9 165 43 189
65 11 11 51 26 89 34 88 19 114 20 114 5z m-858 -108 c42 -69 116 -151 160
-178 27 -16 27 -17 21 -91 -3 -42 -7 -78 -9 -80 -18 -20 -188 121 -227 189
l-19 31 74 -6 73 -6 -23 20 c-54 47 -182 52 -265 10 -23 -12 -57 -38 -74 -57
-18 -20 -36 -33 -40 -29 -9 10 14 128 35 174 9 21 27 54 39 73 l22 35 97 -10
97 -10 39 -65z m263 -7 l52 -6 -46 -63 c-25 -34 -50 -63 -56 -63 -19 -1 -103
79 -139 133 -20 30 -36 56 -36 58 0 2 39 -9 87 -25 47 -16 110 -31 138 -34z
m-2337 -1 c12 -8 22 -16 22 -18 0 -6 -52 16 -73 32 -22 16 -22 16 3 8 14 -4
35 -14 48 -22z m3083 -204 c27 -60 49 -114 49 -120 0 -7 -101 -69 -223 -137
l-222 -123 -150 31 c-82 18 -202 43 -265 56 -63 13 -179 38 -258 54 -79 17
-154 31 -166 31 -18 0 -32 -13 -55 -48 -17 -27 -31 -56 -31 -65 0 -17 355
-905 387 -967 l18 -35 265 -77 c146 -42 284 -81 308 -87 23 -6 42 -17 42 -25
0 -7 7 -19 15 -26 10 -8 15 -31 15 -64 0 -90 58 -160 154 -188 23 -6 59 -28
81 -47 22 -20 51 -43 65 -53 l25 -16 -50 -22 c-75 -32 -244 -78 -390 -105
-553 -102 -1107 -27 -1412 191 l-63 45 0 92 c0 176 33 481 76 717 74 397 196
763 326 978 l53 87 3 -55 c4 -63 14 -80 51 -80 31 0 49 12 112 72 71 69 80 68
140 -13 63 -85 126 -142 204 -182 55 -29 68 -32 155 -32 83 0 101 3 145 26 58
31 97 67 133 124 15 22 27 42 29 44 1 2 16 -8 33 -23 79 -66 144 -15 242 189
l41 86 35 -63 c19 -35 57 -111 83 -170z m83 168 c78 -40 216 -139 216 -154 0
-4 -17 -16 -38 -28 -20 -11 -63 -35 -95 -53 l-57 -33 -22 54 c-12 29 -44 97
-70 151 -26 54 -48 100 -48 103 0 13 38 -1 114 -40z m-3478 -71 c10 -8 29 -15
41 -15 33 0 63 -46 63 -95 0 -23 7 -64 15 -90 8 -27 12 -51 10 -53 -12 -12
-103 48 -130 86 -24 35 -30 55 -33 112 -4 72 0 80 34 55z m1900 -47 c-46 -75
-105 -195 -155 -316 -27 -64 -74 -169 -104 -232 -78 -164 -139 -367 -162 -546
-6 -48 -9 -52 -58 -82 -122 -73 -257 -82 -372 -26 -67 33 -241 193 -296 273
-27 39 -47 54 -105 80 -129 58 -173 124 -182 271 l-5 87 54 30 c96 55 231 156
313 236 88 85 102 90 175 57 96 -44 163 -123 249 -295 22 -44 52 -91 67 -105
l28 -25 -7 35 c-21 113 -23 105 38 195 106 157 284 301 462 375 38 16 73 29
78 29 4 1 -4 -18 -18 -41z m1923 -62 c10 -11 -46 -47 -306 -196 -175 -101
-351 -202 -391 -226 -40 -24 -77 -44 -83 -44 -6 0 -9 12 -7 26 3 23 48 51 383
239 209 117 383 214 386 214 4 1 12 -5 18 -13z m-2989 -58 c0 -35 -168 -179
-306 -262 -78 -47 -115 -46 -99 3 5 16 214 177 330 254 49 33 75 35 75 5z
m1652 -263 c172 -36 351 -74 397 -83 77 -17 86 -21 92 -45 4 -15 4 -27 -1 -27
-13 0 -804 182 -812 186 -7 5 0 34 8 34 2 0 145 -29 316 -65z m1163 -204 c3
-5 0 -13 -6 -17 -12 -7 -39 20 -39 38 0 10 36 -7 45 -21z m60 15 c12 -12 12
-15 1 -19 -16 -7 -26 1 -26 20 0 17 8 17 25 -1z m-105 -50 c0 -8 -5 -18 -10
-21 -6 -4 -9 -1 -8 6 2 7 -8 16 -22 20 -23 7 -23 7 8 8 22 1 32 -4 32 -13z
m-438 -43 c9 -10 43 -72 76 -138 67 -132 111 -191 165 -220 50 -27 67 -11 67
64 1 88 51 179 84 152 13 -11 27 -192 29 -376 1 -94 -28 -159 -99 -224 -154
-141 -390 -101 -579 96 -70 72 -135 197 -135 257 0 52 8 61 31 40 34 -31 49
-11 49 64 0 100 19 110 41 22 19 -74 62 -158 86 -167 8 -3 21 1 29 9 12 12 9
23 -22 85 -30 58 -38 86 -42 146 -6 92 10 150 40 145 16 -2 27 -23 50 -88 32
-89 107 -216 134 -227 8 -3 23 2 32 11 15 15 14 18 -6 43 -39 48 -62 108 -73
190 -14 108 5 159 43 116z m280 -78 c-3 -20 -1 -24 12 -19 9 3 16 10 16 15 0
5 5 9 10 9 6 0 3 -11 -7 -24 -10 -13 -24 -21 -30 -19 -14 5 -18 45 -6 56 10
11 11 9 5 -18z m-66 -54 c-20 -23 -4 -40 20 -20 8 6 17 9 21 5 3 -3 1 -6 -5
-6 -7 0 -12 -7 -12 -15 0 -19 -5 -19 -35 1 l-24 15 21 25 c12 13 24 22 26 19
3 -3 -3 -13 -12 -24z m37 -66 c-3 -9 -8 -14 -10 -11 -3 3 -2 9 2 15 9 16 15
13 8 -4z m651 -296 c8 -80 8 -277 -1 -319 -6 -32 -7 -31 -31 36 -13 38 -42 95
-63 128 -22 32 -39 62 -39 66 0 12 110 150 119 150 5 0 11 -28 15 -61z m-378
-44 c34 -81 -1 -171 -107 -278 -113 -113 -246 -158 -353 -120 -27 10 -55 28
-63 40 -14 21 -14 21 29 11 100 -23 236 10 323 79 68 53 122 156 140 266 3 20
8 37 11 37 3 0 12 -16 20 -35z m124 -30 c17 -9 48 -39 71 -67 76 -97 114 -196
125 -327 6 -67 3 -82 -18 -131 -14 -31 -40 -69 -59 -84 -79 -67 -229 -114
-318 -101 -82 12 -209 74 -196 95 3 5 18 11 33 15 15 3 46 17 67 30 l40 24
-121 -6 c-135 -7 -176 2 -217 45 -15 15 -30 43 -33 61 -7 33 -7 33 17 20 15
-8 56 -13 110 -13 80 0 93 3 165 39 155 76 284 241 284 363 0 56 5 60 50 37z
m-2111 -795 c92 -46 250 -95 382 -119 445 -80 881 -44 1341 110 65 21 129 39
143 39 23 0 25 -3 25 -51 l0 -50 -52 -23 c-177 -78 -467 -152 -713 -181 -195
-24 -555 -16 -700 15 -204 43 -385 121 -530 227 -74 54 -75 55 -75 99 l0 45
58 -39 c31 -22 86 -54 121 -72z m55 -205 c154 -74 330 -122 511 -140 141 -14
132 -9 138 -73 4 -32 13 -76 21 -100 19 -52 18 -52 -106 -11 -105 35 -172 62
-295 120 -47 22 -87 38 -90 36 -2 -3 10 -16 27 -30 l31 -26 14 -183 c8 -101
19 -219 24 -263 6 -44 13 -109 17 -145 8 -92 62 -465 75 -525 5 -27 14 -79 19
-115 14 -102 86 -440 129 -605 22 -82 38 -151 36 -153 -6 -6 -133 -3 -184 3
-25 4 -94 18 -152 31 l-107 25 -10 42 c-15 59 -96 437 -126 587 -111 555 -177
1064 -192 1479 l-7 183 67 -46 c38 -26 109 -66 160 -91z m1482 -337 c-1 -264
6 -351 50 -628 68 -422 122 -642 270 -1091 35 -108 64 -201 64 -207 0 -27
-410 -8 -447 21 -7 5 -17 23 -22 41 -5 17 -28 92 -51 166 -138 454 -231 958
-270 1469 -6 79 -13 148 -16 152 -3 5 -29 9 -57 9 -47 0 -149 13 -204 25 -32
7 -74 95 -81 167 l-5 58 84 0 c94 0 347 24 425 40 47 10 177 26 235 29 l26 1
-1 -252z m-1311 -1897 c39 -10 103 -24 142 -31 53 -10 70 -16 63 -25 -5 -6
-55 -35 -111 -65 -91 -47 -104 -51 -123 -40 -46 29 -124 64 -176 81 l-54 17
54 27 c48 25 116 53 130 54 3 0 37 -8 75 -18z m1291 -85 c54 -8 133 -18 173
-21 87 -9 87 -9 -42 -76 l-80 -42 -66 36 c-36 20 -94 43 -129 53 l-63 18 38
23 c45 27 42 27 169 9z m-1533 -51 c37 -8 95 -29 130 -47 75 -39 191 -152 230
-225 l27 -51 -47 -11 c-116 -26 -280 -35 -402 -23 -142 14 -221 31 -228 49
-14 37 75 198 156 283 43 45 41 45 134 25z m1397 -62 c117 -39 245 -145 304
-253 34 -63 34 -64 -83 -82 -123 -19 -345 -16 -463 6 -95 17 -98 19 -98 44 0
54 74 183 154 270 39 43 40 43 90 37 28 -4 71 -14 96 -22z m-480 -127 c0 -40
-4 -48 -53 -92 -29 -27 -84 -64 -123 -83 -68 -34 -216 -91 -234 -91 -5 0 -14
17 -19 38 -6 20 -12 41 -13 45 -2 5 35 23 82 41 112 42 201 87 280 140 36 24
68 44 73 45 4 1 7 -19 7 -43z m1350 -46 c0 -57 -54 -113 -167 -172 -91 -47
-229 -101 -246 -95 -11 3 -38 78 -32 88 3 3 28 14 57 23 72 23 262 117 323
160 28 19 53 35 58 35 4 1 7 -17 7 -39z m-1839 -190 c7 -22 10 -43 7 -46 -18
-17 -190 -37 -333 -38 -141 -1 -169 2 -233 22 -48 15 -86 35 -113 59 -22 20
-38 37 -36 39 2 2 39 -2 83 -10 180 -31 389 -28 544 8 30 7 58 11 62 9 4 -2
13 -22 19 -43z m1339 -25 c26 -69 25 -70 -31 -83 -186 -43 -457 -37 -565 12
-50 23 -111 72 -102 81 2 2 40 -2 83 -10 133 -23 262 -28 380 -16 86 10 196
29 223 40 1 1 7 -10 12 -24z"/>
<path d="M3374 8975 c-152 -33 -294 -144 -294 -229 0 -30 52 -76 85 -76 13 0
61 9 107 20 129 31 195 27 275 -15 96 -51 158 -44 192 22 32 64 -8 180 -81
233 -78 57 -166 71 -284 45z"/>
<path d="M4949 8927 c-133 -38 -216 -177 -164 -278 30 -57 86 -63 185 -19 42
19 85 30 113 30 24 0 90 -13 145 -30 127 -37 146 -38 183 -1 32 33 36 58 15
99 -17 33 -97 109 -147 140 -93 57 -243 83 -330 59z"/>
<path d="M3450 8273 l-22 -28 22 -3 c23 -4 45 11 61 40 17 31 -35 23 -61 -9z"/>
<path d="M3115 8129 c-25 -34 -45 -66 -45 -71 0 -6 10 2 22 18 12 16 37 48 55
72 19 23 30 42 24 42 -6 0 -31 -27 -56 -61z"/>
<path d="M3061 7732 c-12 -18 -18 -32 -13 -32 15 0 44 38 40 51 -2 7 -14 -1
-27 -19z"/>
<path d="M4894 8250 c-18 -7 -54 -50 -54 -65 0 -3 17 -3 38 1 33 5 82 45 82
67 0 9 -39 8 -66 -3z"/>
<path d="M4521 7746 c-22 -36 -27 -61 -12 -70 12 -8 51 55 51 83 0 31 -15 26
-39 -13z"/>
<path d="M6742 7702 c-62 -23 -127 -72 -127 -97 0 -10 7 -23 17 -28 12 -8 24
-5 52 17 53 40 100 56 165 57 83 1 149 -23 201 -74 105 -103 117 -252 29 -370
-45 -59 -47 -72 -18 -87 17 -10 25 -6 54 24 156 166 99 445 -113 547 -66 31
-188 36 -260 11z"/>
<path d="M4055 7520 c-71 -16 -115 -66 -115 -132 0 -94 87 -231 155 -244 19
-3 46 -3 60 0 64 16 155 141 155 213 0 19 -7 47 -15 63 -36 69 -155 119 -240
100z m126 -83 c77 -41 82 -83 22 -170 -55 -80 -105 -79 -155 4 -31 49 -44 104
-34 142 12 49 96 61 167 24z"/>
<path d="M4906 7088 c-2 -7 -7 -39 -9 -70 -11 -116 -73 -210 -172 -259 -60
-29 -70 -31 -147 -27 -88 5 -137 23 -196 73 -36 30 -48 31 -62 4 -10 -18 -6
-26 31 -60 63 -59 135 -83 244 -84 82 0 96 3 157 33 77 38 134 97 175 180 23
47 27 70 28 137 0 76 -1 80 -23 83 -12 2 -24 -3 -26 -10z"/>
<path d="M5064 4725 c-16 -41 75 -149 119 -143 36 5 32 40 -6 65 -19 11 -41
37 -51 57 -18 38 -52 49 -62 21z"/>
</g>
</svg>
